<?xml version="1.0" encoding="UTF-8"?>
<svg id="Layer_2" xmlns="http://www.w3.org/2000/svg" viewBox="0 0 132 124">
                <defs>
                <style>.text {fill:#000;} .isotype {fill:#000;} .cls-2{isolation:isolate;}</style>
                </defs><g id="Layer_1-2">
                  <g><g class="cls-2">
                    <path class="isotype isotype-crown" d="m87.39,45.07c14.82-8.7,29.34-17.23,44.13-25.91.18-.09.31.04.18.3-.35.78-.71,1.56-1.06,2.34-1.14,2.53-2.28,5.05-3.42,7.58-.97,2.16-1.95,4.32-2.93,6.47-.9,1.99-1.79,3.98-2.69,5.97-.91,2.01-1.82,4.01-2.73,6.01-.64,1.42-1.28,2.85-1.93,4.27-.69,1.53-1.38,3.06-2.07,4.59-.1.23-.2.46-.31.69-.03.07-.08.13-.15.23-.04-.09-.07-.13-.07-.17,0-.15,0-.3,0-.45,0-4.77,0-9.55,0-14.32,0-.2.04-.4-.07-.62-.1.04-.19.06-.28.11-1.54.79-3.08,1.58-4.62,2.37-1.73.89-3.46,1.79-5.2,2.68-1.78.92-3.55,1.83-5.33,2.74-2.21,1.14-4.42,2.27-6.64,3.41-2.51,1.29-5.02,2.59-7.53,3.88-2.66,1.37-5.31,2.74-7.97,4.11-2.76,1.42-5.53,2.84-8.29,4.26-.69.35-1.37.71-2.06,1.07-.06.03-.12.06-.18.1-.35.21-.69.19-1.05,0-.57-.32-1.16-.6-1.75-.9-1.39-.72-2.78-1.43-4.17-2.15-2.69-1.39-5.37-2.77-8.06-4.16-1.82-.94-3.65-1.87-5.47-2.81-2.76-1.42-5.52-2.86-8.28-4.28-2.33-1.2-4.67-2.39-7-3.59-1.57-.81-3.13-1.62-4.7-2.43-1.7-.88-3.41-1.75-5.11-2.62-.96-.49-1.91-.99-2.86-1.48-.2-.11-.4-.23-.66-.27-.02.08-.05.14-.05.2,0,.15,0,.3,0,.45,0,4.66,0,9.31,0,13.97v.59c-.19.06-.19-.08-.23-.15-.34-.73-.67-1.47-1-2.2-.58-1.28-1.17-2.57-1.75-3.85-1.14-2.49-2.27-4.98-3.41-7.47-.87-1.91-1.75-3.82-2.62-5.73-.8-1.74-1.59-3.49-2.38-5.23-1-2.19-2-4.37-3-6.55-.87-1.89-1.73-3.79-2.59-5.69-.02-.04-.05-.1-.01-.15.05-.06.14-.03.21,0,1.71.91,3.41,1.82,5.12,2.72,1.74.92,3.47,1.84,5.21,2.76,1.77.94,3.53,1.88,5.3,2.81,1.42.76,2.85,1.51,4.28,2.26,1.74.92,3.47,1.84,5.21,2.76,1.41.75,2.82,1.49,4.23,2.24,1.78.94,3.56,1.89,5.34,2.84,1.42.76,2.85,1.51,4.28,2.26,2.08,1.1,4.16,2.2,6.23,3.3.31.16.62.32.96.49.07-.11.13-.18.17-.27.74-1.71,1.48-3.42,2.22-5.14.89-2.07,1.78-4.13,2.67-6.2.72-1.67,1.43-3.34,2.15-5,.89-2.07,1.79-4.13,2.68-6.2.66-1.53,1.31-3.06,1.97-4.58.92-2.14,1.85-4.29,2.78-6.43.65-1.51,1.3-3.03,1.95-4.54.89-2.07,1.78-4.14,2.67-6.2.03-.06.06-.11.09-.16.16-.03.18.08.22.17.5,1.05,1,2.09,1.5,3.14,1.16,2.44,2.33,4.88,3.49,7.33.74,1.55,1.47,3.09,2.21,4.64.67,1.39,1.34,2.79,2,4.18.92,1.93,1.83,3.85,2.75,5.78.54,1.14,1.09,2.27,1.63,3.41,1.04,2.18,2.08,4.37,3.12,6.55.77,1.61,1.54,3.21,2.31,4.82.75,1.58,1.51,3.15,2.26,4.73.04.09.09.17.18.32Z"/>
                    <path class="isotype isotype-face" d="m65.78,124.02c-.13-.15-.2-.24-.27-.33-1.46-1.95-2.91-3.91-4.37-5.86-2.43-3.26-4.86-6.52-7.29-9.78-1.7-2.28-3.4-4.55-5.09-6.83-1.35-1.81-2.69-3.61-4.03-5.42-.31-.42-.67-.62-1.19-.61-.89.02-1.78,0-2.67,0-.69,0-1.38,0-2.07,0h-.46c-.16.14-.13.28-.13.41,0,.57,0,1.14,0,1.71,0,2.37,0,4.74,0,7.11,0,.11-.01.22-.02.34-.15.02-.15-.09-.18-.15-.52-1.15-1.04-2.29-1.56-3.44-1.29-2.86-2.59-5.72-3.88-8.59-1.22-2.71-2.44-5.43-3.66-8.14-.99-2.21-1.99-4.41-2.98-6.62-.11-.24-.23-.49-.33-.74-.1-.23-.16-.48-.15-.73,0-.08,0-.17,0-.25,0-7.14,0-14.29,0-21.43v-.54c.2-.09.32.03.45.09,1.08.55,2.16,1.1,3.23,1.65,1.35.69,2.69,1.38,4.03,2.07,1.81.93,3.61,1.86,5.42,2.79,1.69.87,3.38,1.73,5.07,2.6,2.24,1.15,4.48,2.32,6.72,3.47,2.5,1.28,5,2.55,7.49,3.83,2.27,1.17,4.54,2.34,6.81,3.51.09.05.18.1.26.15.17.1.27.25.28.45,0,.13.01.27.01.4,0,2.57,0,5.14,0,7.72,0,.45-.02.91-.02,1.36,0,.24-.07.46-.18.67-.8,1.54-1.59,3.07-2.39,4.61-.78,1.51-1.57,3.01-2.35,4.51-.08.15-.11.32-.3.41-.08-.08-.17-.15-.24-.24-2.34-2.71-4.68-5.42-7.02-8.13-2.44-2.82-4.88-5.65-7.31-8.47-.33-.38-.65-.77-.97-1.16-.23-.27-.52-.43-.88-.43-.4,0-.81.01-1.21.03-1.19.07-2.38.14-3.57.21-1.29.08-2.58.15-3.87.22-.23.01-.47,0-.7.03-.09,0-.17.07-.26.11.12.18.27.17.42.18.94.05,1.88.1,2.82.16,1.19.07,2.38.15,3.57.23.4.02.81.04,1.21.06.17,0,.33.04.5.04.35,0,.6.17.82.43.8.93,1.61,1.85,2.41,2.78,2.4,2.77,4.79,5.54,7.18,8.31,1.21,1.4,2.42,2.79,3.63,4.19.82.95,1.65,1.91,2.45,2.88.51.61,1.11,1.12,1.66,1.68,1.54,1.55,3.09,3.09,4.63,4.64.19.19.36.39.56.61.13-.09.24-.16.33-.25.46-.44.91-.89,1.37-1.34,1.17-1.16,2.34-2.32,3.51-3.48,1.23-1.22,2.39-2.5,3.52-3.82,1.42-1.66,2.84-3.32,4.27-4.97,1.03-1.2,2.07-2.39,3.11-3.58,1.72-1.98,3.44-3.96,5.16-5.94.52-.6,1.05-1.18,1.54-1.8.27-.33.59-.48,1-.5,1.44-.08,2.89-.15,4.33-.23,1.24-.07,2.48-.15,3.72-.23.1,0,.19-.05.34-.09-.1-.08-.16-.15-.22-.16-.15-.03-.3-.04-.45-.05-.91-.04-1.81-.07-2.72-.11-1.19-.05-2.38-.11-3.57-.16-.86-.04-1.71-.07-2.57-.12-.42-.03-.74.12-1.02.44-.55.65-1.12,1.29-1.69,1.94-.97,1.12-1.93,2.24-2.9,3.35-2.01,2.31-4.01,4.62-6.02,6.92-1.51,1.74-3.02,3.48-4.53,5.21-.17.2-.32.43-.54.57-.16-.03-.17-.17-.22-.26-.98-1.89-1.97-3.79-2.95-5.68-.65-1.25-1.3-2.51-1.96-3.75-.2-.38-.3-.77-.3-1.21,0-2.82-.01-5.65-.02-8.47,0-.13,0-.27.04-.4.06-.25.27-.37.48-.48.63-.32,1.25-.65,1.88-.97,1.99-1.02,3.98-2.04,5.96-3.06,1.11-.57,2.21-1.13,3.32-1.7,1.76-.91,3.52-1.82,5.29-2.73,1.73-.89,3.47-1.77,5.2-2.66,1.67-.86,3.35-1.72,5.02-2.58,1.97-1.01,3.94-2.03,5.92-3.04,2.03-1.04,4.06-2.09,6.1-3.13.17-.09.34-.2.58-.23.01.16.03.29.03.42,0,.54,0,1.08,0,1.61,0,5.93,0,11.87,0,17.8,0,1.08-.01,2.15,0,3.23,0,.41-.07.8-.24,1.18-.39.86-.77,1.72-1.15,2.58-1.43,3.17-2.85,6.34-4.28,9.51-.99,2.19-1.98,4.38-2.97,6.57-1.11,2.47-2.22,4.93-3.33,7.4-.19.41-.38.83-.57,1.24-.03.06-.07.11-.13.21-.04-.09-.08-.14-.09-.19,0-.17,0-.34,0-.5,0-3.08,0-6.15,0-9.23,0-.2,0-.4-.01-.62-.14-.02-.26-.05-.37-.05-1.7,0-3.4,0-5.09,0-.43,0-.74.16-.99.5-.48.65-.96,1.29-1.45,1.94-1.99,2.67-3.97,5.34-5.96,8-2.31,3.1-4.62,6.19-6.93,9.29-2.04,2.74-4.07,5.47-6.11,8.21-.21.28-.43.55-.68.89Z"/>
                    <path class="isotype isotype-crown" d="m96.42,16.38c.12.45.23.82.31,1.19.33,1.42.65,2.85.97,4.28.37,1.64.75,3.27,1.13,4.91.38,1.69.76,3.38,1.14,5.07.06.25.11.49.17.74.04.17-.02.3-.15.4-.09.07-.2.13-.3.19-2.19,1.24-4.39,2.48-6.58,3.72-1.32.74-2.63,1.49-3.95,2.23-.13.07-.26.13-.41.2-.05-.08-.1-.13-.12-.18-1.62-3.73-3.23-7.46-4.83-11.16.07-.23.23-.34.37-.46,1.89-1.72,3.78-3.44,5.66-5.16,1.25-1.14,2.51-2.29,3.76-3.43.84-.77,1.69-1.54,2.53-2.31.07-.07.15-.12.3-.23Z"/>
                    <path class="isotype isotype-crown" d="m43.7,38.18c-.13-.06-.24-.11-.34-.16-3.02-1.72-6.05-3.43-9.07-5.15-.45-.26-.91-.51-1.36-.76-.1-.06-.21-.11-.31-.18-.28-.18-.35-.31-.28-.63.06-.28.12-.56.19-.84.53-2.31,1.06-4.62,1.59-6.92.52-2.26,1.03-4.52,1.54-6.78.09-.38.17-.75.27-1.13.03-.11.08-.21.12-.31.06.01.1,0,.12.02,4.11,3.74,8.22,7.48,12.33,11.22.06.05.1.13.15.18-.1.38-4.66,10.93-4.95,11.43Z"/></g><g>
                    </g>
                    </g>
                    </g>
                    </svg>